<?xml version="1.0" encoding="utf-8"?>
<!-- Generator: Adobe Illustrator 26.5.0, SVG Export Plug-In . SVG Version: 6.00 Build 0)  -->
<svg version="1.1" id="Layer_1" xmlns="http://www.w3.org/2000/svg" xmlns:xlink="http://www.w3.org/1999/xlink" x="0px" y="0px"
	 viewBox="0 0 470 150" style="enable-background:new 0 0 470 150;" xml:space="preserve">
<style type="text/css">
	.st0{fill:#00205C;}
	.st1{fill:#AD9572;}
</style>
<g>
	<g>
		<path class="st0" d="M175.8,66.5h-17.6v-4.1h-5.9v17.2h29.4V62.4h-5.9V66.5z M175.8,74.5h-17.6v-3h17.6V74.5z"/>
		<path class="st0" d="M175.8,46.7h-6.1v-6.6h-5.9v5.5H154v-5.5h-5.9v20h21.6v-7.9h6.1v9.2h5.9V38.6h-5.9V46.7z M163.8,54.9H154
			v-4.2h9.8V54.9z"/>
		<path class="st0" d="M225.5,39.8h-30.3v18h30.3V39.8z M219.6,52.6h-18.5V45h18.5V52.6z"/>
		<polygon class="st0" points="189.9,66.6 207.3,66.6 207.3,80 213.4,80 213.4,66.6 230.9,66.6 230.9,61.4 189.9,61.4 		"/>
		<path class="st0" d="M265.3,66.5h-17.6v-4.1h-5.9v17.2h29.4V62.4h-5.9V66.5z M265.3,74.5h-17.6v-3h17.6V74.5z"/>
		<path class="st0" d="M265.3,46.7h-6.1v-6.6h-5.9v5.5h-9.8v-5.5h-5.9v20h21.6v-7.9h6.1v9.2h5.9V38.6h-5.9V46.7z M253.3,54.9h-9.8
			v-4.2h9.8V54.9z"/>
		<rect x="310" y="38.6" class="st0" width="5.9" height="30.2"/>
		<path class="st0" d="M292.7,61.4c1.7,0,3.3-0.3,4.8-0.8c1.5-0.5,2.8-1.3,3.8-2.3c1.1-1,1.9-2.2,2.5-3.6c0.6-1.4,0.9-2.9,0.9-4.5
			c0-1.6-0.3-3.2-0.9-4.5c-0.6-1.4-1.5-2.6-2.5-3.6c-1.1-1-2.4-1.8-3.8-2.3c-1.5-0.5-3.1-0.8-4.8-0.8c-1.7,0-3.3,0.3-4.8,0.8
			c-1.5,0.5-2.7,1.3-3.8,2.3c-1.1,1-1.9,2.2-2.5,3.6c-0.6,1.4-0.9,2.9-0.9,4.5c0,1.6,0.3,3.2,0.9,4.5c0.6,1.4,1.5,2.6,2.5,3.6
			c1.1,1,2.4,1.8,3.8,2.3C289.4,61.1,291,61.4,292.7,61.4z M286.7,50.2c0-1,0.2-1.8,0.5-2.6c0.3-0.7,0.8-1.4,1.3-1.9
			c0.5-0.5,1.2-0.9,1.9-1.2c0.7-0.3,1.5-0.4,2.3-0.4c0.8,0,1.6,0.1,2.3,0.4c0.7,0.3,1.4,0.7,1.9,1.2c0.5,0.5,1,1.2,1.3,1.9
			c0.3,0.7,0.5,1.6,0.5,2.6s-0.2,1.8-0.5,2.6c-0.3,0.7-0.8,1.4-1.3,1.9c-0.5,0.5-1.2,0.9-1.9,1.2c-1.5,0.5-3.2,0.5-4.6,0
			c-0.7-0.3-1.4-0.7-1.9-1.2c-0.5-0.5-1-1.2-1.3-1.9C286.9,52,286.7,51.1,286.7,50.2z"/>
		<polygon class="st0" points="292.9,74.1 292.9,65.1 287,65.1 287,79.4 316.8,79.4 316.8,74.1 		"/>
	</g>
	<g>
		<polygon class="st0" points="418,87.2 459.1,87.2 459.1,91.1 418,91.1 418,110.8 469.1,110.8 469.1,102.9 428.1,102.9 428.1,99 
			469.1,99 469.1,79.3 418,79.3 		"/>
		<g>
			<g>
				<path class="st0" d="M459.1,37.6v7.1h-10.3v-7.1h-10v10.2h-17.1V37.6h-10v37h37.1V66h10.3v8.7h10v-37H459.1z M438.8,66.7h-17.1
					v-11h17.1V66.7z M459.1,58h-10.3v-5.5h10.3V58z"/>
			</g>
		</g>
	</g>
	<g>
		<polygon class="st0" points="333.5,85.5 343.6,85.5 356.1,54.8 368.6,85.5 376.5,85.5 376.5,110.6 376.5,110.6 376.5,110.7 
			386.1,110.7 386.1,59.6 391.7,59.6 391.7,110.7 401.2,110.7 401.2,37.5 391.7,37.5 391.7,51.6 386.1,51.6 386.1,37.5 376.5,37.5 
			376.5,81.6 358.7,38.3 353.5,38.3 		"/>
	</g>
	<g>
		<path class="st1" d="M111.4,61.4l0.2-35.6h-94l-0.2,35.6c1.5-0.5,3-1,4.5-1.5l0.2-29.6h38l-38.1,83.6V73.7c-1.5,0.4-3,0.9-4.5,1.4
			v48.7v0.4h7.2h10.6h7.4h43.5h7.4h10.6h7.2v-0.4V75c-1.5-0.5-3-0.9-4.5-1.4v40.2L68.8,30.3h38.3l-0.2,29.6
			C108.5,60.4,110,60.9,111.4,61.4z M44.7,119.7l19.7-43.2l19.7,43.2H44.7z M91.6,119.7L68.1,68.3l-2.2-4.8h-3l-2.2,4.8l-23.4,51.3
			H26.7L64.4,37l37.7,82.7H91.6z"/>
		<g>
			<path class="st1" d="M64.4,63.7c24.3,0,46.2,4.9,61.9,12.7c1.3,0.6,2.3-1.1,1.2-1.9c-13.7-9.7-36.8-16.2-63.1-16.2
				S15.1,64.7,1.4,74.4c-1.1,0.8-0.1,2.6,1.2,1.9C18.2,68.6,40.1,63.7,64.4,63.7z"/>
		</g>
		<path class="st1" d="M93.1,50.2l1.5,0.8c0.8,0.4,1.8-0.3,1.6-1.2L96,48.1c-0.1-0.4,0.1-0.7,0.3-1l1.2-1.2c0.7-0.6,0.3-1.8-0.6-1.9
			l-1.7-0.2c-0.4-0.1-0.7-0.3-0.8-0.6l-0.8-1.6c-0.4-0.8-1.6-0.8-2,0l-0.8,1.6c-0.2,0.3-0.5,0.6-0.8,0.6L88.3,44
			c-0.9,0.1-1.3,1.3-0.6,1.9l1.2,1.2c0.3,0.3,0.4,0.6,0.3,1l-0.3,1.7c-0.2,0.9,0.8,1.6,1.6,1.2l1.5-0.8C92.4,50,92.8,50,93.1,50.2z"
			/>
	</g>
	<g>
		<path class="st0" d="M149.5,103h5v1.4h-6.4V92.3h1.4V103z"/>
		<path class="st0" d="M165.7,104.4h-1.5L163,101h-4.6l-1.2,3.4h-1.5l4.2-12.1h1.7L165.7,104.4z M162.6,99.7l-1.8-5.4l-1.9,5.4
			H162.6z"/>
		<path class="st0" d="M175.4,104.4H174l-2.6-9.4l-2.5,9.4h-1.4l-3.3-12.1h1.5l2.5,9.3l2.4-9.3h1.5l2.4,9.3l2.4-9.3h1.5L175.4,104.4
			z"/>
		<path class="st0" d="M190.2,93.7h-5.4v4h4.6V99h-4.6v5.4h-1.4V92.3h6.8V93.7z"/>
		<path class="st0" d="M193.1,92.3v12.1h-1.4V92.3H193.1z"/>
		<path class="st0" d="M195.2,92.3h4c0.7,0,1.3,0.2,1.8,0.5c0.5,0.3,0.9,0.7,1.2,1.3c0.3,0.6,0.4,1.2,0.4,1.9c0,0.8-0.2,1.5-0.6,2.2
			c-0.4,0.6-1,1.1-1.8,1.3l3,4.9h-1.7l-2.9-4.7h-1.9v4.7h-1.4V92.3z M200.6,97.7c0.4-0.4,0.6-1,0.6-1.7c0-0.7-0.2-1.3-0.6-1.7
			c-0.4-0.4-0.9-0.6-1.5-0.6h-2.5v4.7h2.5C199.7,98.3,200.2,98.1,200.6,97.7z"/>
		<path class="st0" d="M206.4,95.3v9.1H205V92.3h1.5l3.9,7.7l3.9-7.7h1.5v12.1h-1.4v-9.1l-3.3,6.7h-1.3L206.4,95.3z"/>
		<path class="st0" d="M230.5,104.4H229l-1.1-3.4h-4.6l-1.2,3.4h-1.5l4.2-12.1h1.7L230.5,104.4z M227.4,99.7l-1.8-5.4l-1.9,5.4
			H227.4z"/>
		<path class="st0" d="M235.8,97.7l4.4,6.7h-1.8l-3.6-5.5l-1.3,1.6v3.9H232V92.3h1.4v5.9l4.7-5.9h1.9L235.8,97.7z"/>
		<path class="st0" d="M245,92.3h3.9c0.7,0,1.3,0.2,1.8,0.5c0.5,0.3,0.9,0.8,1.2,1.3c0.3,0.6,0.4,1.2,0.4,1.9c0,0.7-0.1,1.4-0.4,1.9
			c-0.3,0.6-0.7,1-1.2,1.3c-0.5,0.3-1.1,0.5-1.8,0.5h-2.5v4.7H245V92.3z M250.4,97.6c0.4-0.4,0.6-1,0.6-1.7c0-0.7-0.2-1.2-0.6-1.7
			c-0.4-0.4-0.9-0.7-1.5-0.7h-2.5v4.6h2.5C249.5,98.3,250,98.1,250.4,97.6z"/>
		<path class="st0" d="M261.8,104.4h-1.5l-1.1-3.4h-4.6l-1.2,3.4h-1.5l4.2-12.1h1.7L261.8,104.4z M258.7,99.7l-1.8-5.4l-1.9,5.4
			H258.7z"/>
		<path class="st0" d="M263.4,92.3h4c0.7,0,1.3,0.2,1.8,0.5c0.5,0.3,0.9,0.7,1.2,1.3c0.3,0.6,0.4,1.2,0.4,1.9c0,0.8-0.2,1.5-0.6,2.2
			c-0.4,0.6-1,1.1-1.8,1.3l3,4.9h-1.7l-2.9-4.7h-1.9v4.7h-1.4V92.3z M268.8,97.7c0.4-0.4,0.6-1,0.6-1.7c0-0.7-0.2-1.3-0.6-1.7
			c-0.4-0.4-0.9-0.6-1.5-0.6h-2.5v4.7h2.5C267.9,98.3,268.4,98.1,268.8,97.7z"/>
		<path class="st0" d="M280.1,93.7h-3.1v10.7h-1.4V93.7h-3.1v-1.4h7.7V93.7z"/>
		<path class="st0" d="M290.2,104.4h-1.5l-5.6-9.4v9.4h-1.4V92.3h1.5l5.6,9.4v-9.4h1.4V104.4z"/>
		<path class="st0" d="M299.1,93.7h-5.6v3.8h4.8v1.4h-4.8v4.2h5.6v1.4h-7V92.3h7V93.7z"/>
		<path class="st0" d="M301.1,92.3h4c0.7,0,1.3,0.2,1.8,0.5c0.5,0.3,0.9,0.7,1.2,1.3c0.3,0.6,0.4,1.2,0.4,1.9c0,0.8-0.2,1.5-0.6,2.2
			c-0.4,0.6-1,1.1-1.8,1.3l3,4.9h-1.7l-2.9-4.7h-1.9v4.7h-1.4V92.3z M306.5,97.7c0.4-0.4,0.6-1,0.6-1.7c0-0.7-0.2-1.3-0.6-1.7
			c-0.4-0.4-0.9-0.6-1.5-0.6h-2.5v4.7h2.5C305.6,98.3,306.1,98.1,306.5,97.7z"/>
		<path class="st0" d="M312.2,102.6c0.5,0.4,0.9,0.6,1.5,0.6c0.7,0,1.2-0.2,1.6-0.5c0.4-0.4,0.6-0.9,0.6-1.5c0-0.4-0.1-0.8-0.3-1
			s-0.5-0.5-0.8-0.7c-0.3-0.2-0.7-0.4-1.3-0.6c-0.7-0.3-1.2-0.5-1.6-0.8c-0.4-0.2-0.8-0.6-1.1-1.1c-0.3-0.5-0.4-1-0.4-1.8
			c0-0.6,0.1-1.2,0.4-1.6c0.3-0.5,0.7-0.8,1.2-1.1c0.5-0.2,1.1-0.4,1.7-0.4c0.8,0,1.5,0.2,2.1,0.7c0.6,0.5,1,1.1,1.3,2l-1.3,0.5
			c-0.2-0.6-0.4-1.1-0.8-1.4c-0.4-0.3-0.8-0.5-1.2-0.5c-0.6,0-1.1,0.2-1.5,0.5c-0.4,0.3-0.6,0.7-0.6,1.3c0,0.4,0.1,0.7,0.3,1
			s0.5,0.5,0.8,0.7c0.3,0.2,0.7,0.4,1.3,0.6c0.7,0.3,1.2,0.6,1.6,0.8s0.8,0.6,1.1,1.1c0.3,0.5,0.4,1,0.4,1.7c0,0.7-0.1,1.2-0.4,1.8
			c-0.3,0.5-0.7,0.9-1.3,1.2s-1.2,0.4-1.9,0.4c-0.8,0-1.5-0.2-2.2-0.7c-0.7-0.5-1.2-1.2-1.7-2.1l1.2-0.7
			C311.4,101.7,311.8,102.2,312.2,102.6z"/>
	</g>
</g>
</svg>
